inDegrees=yes
name=ik_lifting_orientations
DataType=double
version=3
OpenSimVersion=4.5-2024-01-10-34fd6af
endheader
time	pelvis_tilt	pelvis_list	pelvis_rotation	pelvis_tx	pelvis_ty	pelvis_tz	hip_flexion_r	hip_adduction_r	hip_rotation_r	knee_angle_r	knee_angle_r_beta	ankle_angle_r	subtalar_angle_r	mtp_angle_r	hip_flexion_l	hip_adduction_l	hip_rotation_l	knee_angle_l	knee_angle_l_beta	ankle_angle_l	subtalar_angle_l	mtp_angle_l	lumbar_extension	lumbar_bending	lumbar_rotation	arm_flex_r	arm_add_r	arm_rot_r	elbow_flex_r	pro_sup_r	wrist_flex_r	wrist_dev_r	arm_flex_l	arm_add_l	arm_rot_l	elbow_flex_l	pro_sup_l	wrist_flex_l	wrist_dev_l
3.38	0.004025174409354634	-0.01368774737425519	89.99591828201812	0	0.9400000003403366	0	44.88780977623011	-10.00046663632138	0	59.53114027448247	1.03901440525632	-5.00003283292657	0	0	44.88780977623011	-10.00046663632138	0	59.53114027448247	1.03901440525632	-5.00003283292657	0	0	0.02158671815484617	0.01067276631333684	0.007816836457108413	-2.260113815310392	-5.569902780351837	8.536690529745108	13.86002212086536	-1.386372547375738	0	0	0	-13.53379938774077	0	75.00913301184637	1.386162277693158	0	0
3.39	0.008338373642841786	-0.01397698306930262	89.99870384840807	0	0.9400000003403366	0	44.88784090770802	-10.00046618291467	0	59.53124224426728	1.039016184964802	-5.000032791108121	0	0	44.88784090770802	-10.00046618291467	0	59.53124224426728	1.039016184964802	-5.000032791108121	0	0	0.0245476983296185	0.01407226263521777	0.006854621934245107	-2.318799741583252	-5.202240962651937	8.421308803026472	12.86655633805158	-1.386105046258698	0	0	0	-13.53400744203277	0	75.0091305263571	1.385894776574995	0	0
3.4	0.009301964618124076	-0.01396308353218561	90.00038294985274	0	0.9400000003403366	0	44.88787143586301	-10.00046573858031	0	59.53134223885298	1.039017930199557	-5.000032750138264	0	0	44.88787143586301	-10.00046573858031	0	59.53134223885298	1.039017930199557	-5.000032750138264	0	0	0.02757381429587099	0.01655150425095925	0.006784683221025409	-2.350937323783846	-4.85496923442841	8.284129388161462	11.81060467873465	-1.385842712173749	0	0	0	-13.53421148446642	0	75.00912808903624	1.385632442488945	0	0
3.41	0.009010463284104434	-0.01568429911664104	89.99900349899323	0	0.9400000003403366	0	44.88790250847958	-10.00046528654245	0	59.53144400710288	1.039019706390592	-5.000032708468687	0	0	44.88790250847958	-10.00046528654245	0	59.53144400710288	1.039019706390592	-5.000032708468687	0	0	0.02693934791662132	0.01527995531753267	0.005852116472614085	-2.407630405491188	-4.473757386932216	8.116576462288181	10.71884835049784	-1.385575693104589	0	0	0	-13.53441917081807	0	75.00912560824638	1.385365423418665	0	0
3.42	0.01090746380949706	-0.01626255476570275	89.99802897729727	0	0.9400000003403366	0	44.88793218303648	-10.00046485517467	0	59.53154121116358	1.039021402921497	-5.000032668716469	0	0	44.88793218303648	-10.00046485517467	0	59.53154121116358	1.039021402921497	-5.000032668716469	0	0	0.02540322247559542	0.01489662309430646	0.005467973410914959	-2.51020962742202	-4.080313968311035	8.109690736012382	9.817555772400407	-1.385320658408506	0	0	0	-13.53461755169067	0	75.00912323907546	1.385110388721511	0	0
3.43	0.007880389708604368	-0.01363939561789443	89.9983939644255	0	0.9400000003403366	0	44.88796359861848	-10.00046439877928	0	59.53164411813196	1.039023198986919	-5.000032626669658	0	0	44.88796359861848	-10.00046439877928	0	59.53164411813196	1.039023198986919	-5.000032626669658	0	0	0.02367273682357813	0.01361580484502644	0.006478179697231277	-2.554861929106888	-3.652966464857143	8.206720875302532	8.921326331618044	-1.385050644306417	0	0	0	-13.5348275908949	0	75.00912073090373	1.384840374618284	0	0
3.44	0.0125765316718222	-0.01822969861852264	89.99742349360781	0	0.9400000003403366	0	44.88799249955846	-10.00046397925268	0	59.53173880479213	1.039024851580896	-5.000032588031391	0	0	44.88799249955846	-10.00046397925268	0	59.53173880479213	1.039024851580896	-5.000032588031391	0	0	0.02613089300517979	0.01564301332654622	0.0051988772903734	-2.65469401910311	-3.236371430096484	8.290972544279557	8.087290310592968	-1.384802211964098	0	0	0	-13.53502085908365	0	75.00911842349716	1.384591942274923	0	0
3.45	0.003859314245048128	-0.01118288705085022	89.99836355074298	0	0.9400000003403366	0	44.88802595306828	-10.00046349372004	0	59.53184836449765	1.039026763758485	-5.000032543322924	0	0	44.88802595306828	-10.00046349372004	0	59.53184836449765	1.039026763758485	-5.000032543322924	0	0	0.01719750841091695	0.00861213906413911	0.003570225032243404	-2.679117029411258	-2.866885047261926	8.372216735063413	7.284994760940122	-1.384514670367902	0	0	0	-13.535244531056	0	75.00911575262039	1.38430440067752	0	0
3.46	0.009765379245478878	-0.01564990733971521	89.99781598073429	0	0.9400000003403366	0	44.88805545674073	-10.00046306602286	0	59.53194503258965	1.039028450934972	-5.00003250395549	0	0	44.88805545674073	-10.00046306602286	0	59.53194503258965	1.039028450934972	-5.00003250395549	0	0	0.02357759618998774	0.0135375701675144	0.004871467856835053	-2.711979950876551	-2.498438992873053	8.52588353695959	6.561485416046188	-1.384261018502739	0	0	0	-13.53544187681105	0	75.00911339709262	1.384050748811287	0	0
